<svg width="21" height="21" viewBox="0 0 21 21" fill="none" xmlns="http://www.w3.org/2000/svg">
<path d="M10.8644 0.69397C5.27452 0.69397 0.74292 5.22557 0.74292 10.8155C0.74292 16.4053 5.27452 20.9369 10.8644 20.9369C16.4543 20.9369 20.9859 16.4053 20.9859 10.8155C20.9859 5.22557 16.4543 0.69397 10.8644 0.69397ZM13.8381 6.49547C13.357 6.49547 12.8728 6.49547 12.3919 6.49547C12.0875 6.47577 11.7735 6.70812 11.7178 7.01251C11.7113 7.53939 11.7146 8.06608 11.7146 8.59296C12.4213 8.59625 13.1281 8.59296 13.835 8.59625C13.7827 9.35856 13.6879 10.1178 13.5766 10.8705C12.9516 10.877 12.3266 10.8705 11.7016 10.8737C11.6951 13.1217 11.7049 15.3663 11.6983 17.6145C10.769 17.6178 9.84306 17.6112 8.91367 17.6178C8.89725 15.3698 8.91367 13.1219 8.90382 10.8737C8.45226 10.8705 7.99742 10.877 7.54586 10.8705C7.54914 10.1145 7.54586 9.35876 7.54586 8.6061C7.99742 8.59953 8.45226 8.6061 8.90382 8.60282C8.91695 7.86985 8.89068 7.13361 8.91695 6.40065C8.96601 5.81485 9.18522 5.22926 9.62056 4.82676C10.1475 4.32614 10.8933 4.15599 11.6002 4.13628C12.3463 4.12972 13.0924 4.133 13.8383 4.133C13.8414 4.92159 13.8414 5.70689 13.8381 6.49547Z" fill="black"/>
</svg>
