<svg width="21" height="21" viewBox="0 0 21 21" fill="none" xmlns="http://www.w3.org/2000/svg">
<path fill-rule="evenodd" clip-rule="evenodd" d="M10.5934 20.9369C16.1833 20.9369 20.7149 16.4054 20.7149 10.8155C20.7149 5.22551 16.1833 0.69397 10.5934 0.69397C5.00347 0.69397 0.471924 5.22551 0.471924 10.8155C0.471924 16.4054 5.00347 20.9369 10.5934 20.9369ZM16.4609 10.9496C16.4609 10.5123 16.4202 10.0932 16.3453 9.69237H10.7135V12.0275H13.9768C13.7262 13.435 12.506 14.4599 10.7135 14.4599C8.73792 14.4599 7.13214 12.7872 7.13214 10.8116C7.13214 8.83535 8.73792 7.1663 10.7135 7.1663C11.604 7.1663 12.4014 7.47347 13.0298 8.07199V8.07625L14.7177 6.38834C13.6812 5.42244 12.3303 4.82757 10.7135 4.82757C9.92715 4.82733 9.14844 4.98204 8.42187 5.28286C7.69531 5.58368 7.03514 6.02472 6.47909 6.58077C5.92304 7.13682 5.482 7.79699 5.18118 8.52355C4.88036 9.25012 4.72565 10.0288 4.72589 10.8152C4.72565 11.6016 4.88036 12.3803 5.18118 13.1069C5.482 13.8334 5.92304 14.4936 6.47909 15.0496C7.03514 15.6057 7.69531 16.0467 8.42187 16.3476C9.14844 16.6484 9.92715 16.8031 10.7135 16.8029C14.1714 16.8029 16.4609 14.3704 16.4609 10.9496Z" fill="black"/>
</svg>
