<svg width="22" height="21" viewBox="0 0 22 21" fill="none" xmlns="http://www.w3.org/2000/svg">
<path fill-rule="evenodd" clip-rule="evenodd" d="M11.1073 20.9369C16.6973 20.9369 21.2288 16.4054 21.2288 10.8155C21.2288 5.22551 16.6973 0.69397 11.1073 0.69397C5.51738 0.69397 0.98584 5.22551 0.98584 10.8155C0.98584 16.4054 5.51738 20.9369 11.1073 20.9369ZM17.1839 6.57626C17.3417 6.98621 17.4518 7.45932 17.4818 8.14749C17.5119 8.83822 17.5144 9.05832 17.5144 10.8167C17.5144 12.5752 17.5069 12.7953 17.4768 13.486C17.4468 14.1742 17.3366 14.6448 17.1789 15.0572C16.8459 15.9275 16.1649 16.6157 15.3036 16.9522C14.898 17.1116 14.4298 17.2229 13.7488 17.2533C13.0653 17.2837 12.8475 17.2912 11.1074 17.2912C9.36727 17.2912 9.14937 17.2837 8.46592 17.2533C7.78483 17.2229 7.31919 17.1116 6.91106 16.9522C6.48543 16.7903 6.09735 16.5348 5.77685 16.2058C5.45136 15.882 5.19854 15.4924 5.0358 15.0572C4.87805 14.6473 4.76782 14.1742 4.7378 13.486C4.70777 12.7953 4.70024 12.5752 4.70024 10.8167C4.70024 9.05832 4.70777 8.83822 4.74034 8.14492C4.77036 7.45675 4.88049 6.98621 5.03825 6.57379C5.19854 6.14367 5.45136 5.75151 5.77685 5.42763C6.09735 5.09615 6.48288 4.84314 6.91361 4.67869C7.31919 4.51937 7.78737 4.40799 8.46837 4.37764C9.15191 4.3473 9.36971 4.33969 11.1098 4.33969C12.8499 4.33969 13.0677 4.3473 13.7538 4.38021C14.4348 4.41056 14.9005 4.52184 15.3086 4.68126C15.7342 4.84314 16.1223 5.09872 16.4428 5.42763C16.7708 5.75151 17.0212 6.1411 17.1839 6.57626ZM16.1073 14.6372C16.1949 14.4095 16.3001 14.0679 16.3277 13.4354C16.3577 12.7523 16.3652 12.5499 16.3652 10.8218C16.3652 9.0937 16.3577 8.88883 16.3277 8.2057C16.3001 7.57565 16.1949 7.23161 16.1073 7.0039C16.0046 6.72302 15.8419 6.47001 15.6291 6.26C15.4238 6.04494 15.1709 5.88048 14.893 5.77681C14.6677 5.68825 14.3297 5.58201 13.7037 5.55414C13.0302 5.5238 12.8274 5.51619 11.1148 5.51619C9.40483 5.51619 9.20198 5.5238 8.52597 5.55414C7.90258 5.58201 7.56203 5.68825 7.3367 5.77681C7.05874 5.88048 6.80837 6.04494 6.60064 6.26C6.38528 6.46754 6.22253 6.72302 6.11984 7.0039C6.03221 7.23161 5.92707 7.57317 5.89959 8.2057C5.86947 8.88626 5.86203 9.0937 5.86203 10.8218C5.86203 12.5499 5.86947 12.7548 5.89959 13.438C5.92707 14.0679 6.03221 14.412 6.11984 14.6398C6.22253 14.9205 6.38528 15.1735 6.59809 15.3836C6.80338 15.5986 7.0563 15.7631 7.33416 15.8668C7.55949 15.9554 7.8975 16.0616 8.52343 16.0894C9.197 16.1199 9.40228 16.1274 11.1124 16.1274C12.8224 16.1274 13.0252 16.1199 13.7012 16.0894C14.3247 16.0616 14.6651 15.9554 14.8905 15.8668C15.4488 15.6492 15.892 15.2014 16.1073 14.6372ZM11.1098 7.48966C9.29215 7.48966 7.81739 8.97985 7.81739 10.8167C7.81739 12.6536 9.29215 14.1438 11.1098 14.1438C12.9276 14.1438 14.4022 12.6536 14.4022 10.8167C14.4022 8.97985 12.9276 7.48966 11.1098 7.48966ZM11.1098 12.9749C9.93061 12.9749 8.9741 12.0084 8.9741 10.8167C8.9741 9.62502 9.93061 8.65854 11.1098 8.65854C12.2891 8.65854 13.2455 9.62502 13.2455 10.8167C13.2455 12.0084 12.2891 12.9749 11.1098 12.9749ZM14.5324 8.13483C14.957 8.13483 15.3011 7.78704 15.3011 7.35811C15.3011 6.92908 14.957 6.58139 14.5324 6.58139C14.108 6.58139 13.7638 6.92908 13.7638 7.35811C13.7638 7.78704 14.108 8.13483 14.5324 8.13483Z" fill="black"/>
</svg>
