<svg width="203" height="24" viewBox="0 0 203 24" fill="none" xmlns="http://www.w3.org/2000/svg">
<g clip-path="url(#clip0)">
<g clip-path="url(#clip1)">
<path fill-rule="evenodd" clip-rule="evenodd" d="M115.428 14.2826V7.74648L109.257 14.2826L106.057 10.8935L112.228 4.35739H106.057V0H120V14.2826H115.428Z" fill="#53AC74"/>
</g>
<path fill-rule="evenodd" clip-rule="evenodd" d="M0 22.7069H15.191V19.1386H3.98085V0H0V22.7069ZM39.6517 11.7146C39.6517 9.43908 39.1995 7.43355 38.2953 5.69802C37.4249 3.99951 36.1157 2.59861 34.5211 1.6592C32.842 0.683552 30.9516 0.188438 29.0367 0.222711C27.0883 0.19057 25.1651 0.692589 23.454 1.68002C21.8301 2.6231 20.4885 4.02956 19.5815 5.73965C18.6385 7.52571 18.1571 9.54361 18.1858 11.5897C18.1541 13.6547 18.6499 15.6903 19.6208 17.4814C20.5808 19.2202 21.9933 20.6296 23.6894 21.541C25.445 22.513 27.4763 22.9988 29.7832 22.9983C31.4487 23.0259 33.1038 22.7149 34.6587 22.0823C36.0468 21.5124 37.2771 20.5816 38.2363 19.3759L35.6022 16.1708C34.1089 17.7809 32.2087 18.5859 29.9016 18.5857C28.0931 18.5857 26.5795 18.1069 25.3608 17.1492C24.1552 16.2149 23.3436 14.8172 23.1002 13.2562H39.573C39.6251 12.59 39.6514 12.0764 39.6517 11.7156V11.7146ZM29.0367 4.38644C30.6352 4.38644 31.9719 4.88609 33.0468 5.88538C34.1248 6.89204 34.8113 8.28687 34.9732 9.79929H23.0608C23.2348 8.26789 23.9456 6.86157 25.0524 5.85903C26.1592 4.85649 27.5812 4.33091 29.0367 4.38644ZM60.4885 0.472535L53.7657 16.9609L47.2394 0.472535H42.1285L51.132 22.7069H56.2036L65.2062 0.472535H60.4885ZM88.9917 11.7146C88.9917 9.43908 88.5395 7.43355 87.6353 5.69802C86.7647 3.99944 85.4555 2.59854 83.8606 1.6592C82.1815 0.683552 80.2912 0.188438 78.3762 0.222711C76.4278 0.19057 74.5047 0.692589 72.7935 1.68002C71.1697 2.62311 69.828 4.02956 68.921 5.73965C67.978 7.52569 67.4966 9.54361 67.5254 11.5897C67.4938 13.6547 67.9897 15.6904 68.9608 17.4814C69.9208 19.2203 71.3333 20.6296 73.0294 21.541C74.785 22.513 76.8163 22.9988 79.1232 22.9983C80.7886 23.0258 82.4435 22.7148 83.9982 22.0823C85.3863 21.5124 86.6166 20.5816 87.5759 19.3759L84.9418 16.1708C83.4484 17.7809 81.5482 18.5859 79.2411 18.5857C77.4327 18.5857 75.9191 18.1069 74.7003 17.1492C73.4947 16.2149 72.6831 14.8172 72.4397 13.2562H88.9126C88.9647 12.59 88.9909 12.0764 88.9912 11.7156L88.9917 11.7146ZM78.3762 4.38644C79.9746 4.38644 81.3113 4.88609 82.3863 5.88538C83.4643 6.89204 84.1509 8.28687 84.3128 9.79929H72.4004C72.5743 8.26789 73.2851 6.86157 74.3919 5.85903C75.4987 4.85649 76.9208 4.33091 78.3762 4.38644ZM94.9366 22.7069H110.129V19.1386H98.9184V0H94.9366V22.7069Z" fill="black"/>
<path d="M134.18 9.1C133.473 9.1 132.833 8.94667 132.26 8.64C131.693 8.32667 131.247 7.89667 130.92 7.35C130.6 6.80333 130.44 6.18667 130.44 5.5C130.44 4.81333 130.603 4.19667 130.93 3.65C131.257 3.10333 131.703 2.67667 132.27 2.37C132.843 2.05667 133.483 1.9 134.19 1.9C134.763 1.9 135.287 2 135.76 2.2C136.233 2.4 136.633 2.69 136.96 3.07L136.12 3.86C135.613 3.31333 134.99 3.04 134.25 3.04C133.77 3.04 133.34 3.14667 132.96 3.36C132.58 3.56667 132.283 3.85667 132.07 4.23C131.857 4.60333 131.75 5.02667 131.75 5.5C131.75 5.97333 131.857 6.39667 132.07 6.77C132.283 7.14333 132.58 7.43667 132.96 7.65C133.34 7.85667 133.77 7.96 134.25 7.96C134.99 7.96 135.613 7.68333 136.12 7.13L136.96 7.93C136.633 8.31 136.23 8.6 135.75 8.8C135.277 9 134.753 9.1 134.18 9.1ZM142.19 9.07C141.65 9.07 141.164 8.95333 140.73 8.72C140.297 8.48667 139.957 8.16333 139.71 7.75C139.47 7.33 139.35 6.85667 139.35 6.33C139.35 5.80333 139.47 5.33333 139.71 4.92C139.957 4.50667 140.297 4.18333 140.73 3.95C141.164 3.71667 141.65 3.6 142.19 3.6C142.737 3.6 143.227 3.71667 143.66 3.95C144.094 4.18333 144.43 4.50667 144.67 4.92C144.917 5.33333 145.04 5.80333 145.04 6.33C145.04 6.85667 144.917 7.33 144.67 7.75C144.43 8.16333 144.094 8.48667 143.66 8.72C143.227 8.95333 142.737 9.07 142.19 9.07ZM142.19 8C142.65 8 143.03 7.84667 143.33 7.54C143.63 7.23333 143.78 6.83 143.78 6.33C143.78 5.83 143.63 5.42667 143.33 5.12C143.03 4.81333 142.65 4.66 142.19 4.66C141.73 4.66 141.35 4.81333 141.05 5.12C140.757 5.42667 140.61 5.83 140.61 6.33C140.61 6.83 140.757 7.23333 141.05 7.54C141.35 7.84667 141.73 8 142.19 8ZM151.166 3.6C151.839 3.6 152.379 3.79667 152.786 4.19C153.192 4.58333 153.396 5.16667 153.396 5.94V9H152.146V6.1C152.146 5.63333 152.036 5.28333 151.816 5.05C151.596 4.81 151.282 4.69 150.876 4.69C150.416 4.69 150.052 4.83 149.786 5.11C149.519 5.38333 149.386 5.78 149.386 6.3V9H148.136V3.66H149.326V4.35C149.532 4.10333 149.792 3.91667 150.106 3.79C150.419 3.66333 150.772 3.6 151.166 3.6ZM158.531 9.07C158.098 9.07 157.675 9.01333 157.261 8.9C156.848 8.78667 156.518 8.64333 156.271 8.47L156.751 7.52C156.991 7.68 157.278 7.81 157.611 7.91C157.951 8.00333 158.285 8.05 158.611 8.05C159.358 8.05 159.731 7.85333 159.731 7.46C159.731 7.27333 159.635 7.14333 159.441 7.07C159.255 6.99667 158.951 6.92667 158.531 6.86C158.091 6.79333 157.731 6.71667 157.451 6.63C157.178 6.54333 156.938 6.39333 156.731 6.18C156.531 5.96 156.431 5.65667 156.431 5.27C156.431 4.76333 156.641 4.36 157.061 4.06C157.488 3.75333 158.061 3.6 158.781 3.6C159.148 3.6 159.515 3.64333 159.881 3.73C160.248 3.81 160.548 3.92 160.781 4.06L160.301 5.01C159.848 4.74333 159.338 4.61 158.771 4.61C158.405 4.61 158.125 4.66667 157.931 4.78C157.745 4.88667 157.651 5.03 157.651 5.21C157.651 5.41 157.751 5.55333 157.951 5.64C158.158 5.72 158.475 5.79667 158.901 5.87C159.328 5.93667 159.678 6.01333 159.951 6.1C160.225 6.18667 160.458 6.33333 160.651 6.54C160.851 6.74667 160.951 7.04 160.951 7.42C160.951 7.92 160.735 8.32 160.301 8.62C159.868 8.92 159.278 9.07 158.531 9.07ZM169.098 3.66V9H167.908V8.32C167.708 8.56 167.458 8.74667 167.158 8.88C166.858 9.00667 166.534 9.07 166.188 9.07C165.474 9.07 164.911 8.87333 164.498 8.48C164.091 8.08 163.888 7.49 163.888 6.71V3.66H165.138V6.54C165.138 7.02 165.244 7.38 165.458 7.62C165.678 7.85333 165.988 7.97 166.388 7.97C166.834 7.97 167.188 7.83333 167.448 7.56C167.714 7.28 167.848 6.88 167.848 6.36V3.66H169.098ZM172.634 1.58H173.884V9H172.634V1.58ZM180.899 8.71C180.752 8.83 180.572 8.92 180.359 8.98C180.152 9.04 179.932 9.07 179.699 9.07C179.112 9.07 178.659 8.91667 178.339 8.61C178.019 8.30333 177.859 7.85667 177.859 7.27V4.7H176.979V3.7H177.859V2.48H179.109V3.7H180.539V4.7H179.109V7.24C179.109 7.5 179.172 7.7 179.299 7.84C179.425 7.97333 179.609 8.04 179.849 8.04C180.129 8.04 180.362 7.96667 180.549 7.82L180.899 8.71ZM183.827 3.66H185.077V9H183.827V3.66ZM184.457 2.78C184.23 2.78 184.04 2.71 183.887 2.57C183.734 2.42333 183.657 2.24333 183.657 2.03C183.657 1.81667 183.734 1.64 183.887 1.5C184.04 1.35333 184.23 1.28 184.457 1.28C184.684 1.28 184.874 1.35 185.027 1.49C185.18 1.62333 185.257 1.79333 185.257 2C185.257 2.22 185.18 2.40667 185.027 2.56C184.88 2.70667 184.69 2.78 184.457 2.78ZM191.648 3.6C192.321 3.6 192.861 3.79667 193.268 4.19C193.674 4.58333 193.878 5.16667 193.878 5.94V9H192.628V6.1C192.628 5.63333 192.518 5.28333 192.298 5.05C192.078 4.81 191.764 4.69 191.358 4.69C190.898 4.69 190.534 4.83 190.268 5.11C190.001 5.38333 189.868 5.78 189.868 6.3V9H188.618V3.66H189.808V4.35C190.014 4.10333 190.274 3.91667 190.588 3.79C190.901 3.66333 191.254 3.6 191.648 3.6ZM202.712 3.66V8.19C202.712 10.07 201.752 11.01 199.832 11.01C199.319 11.01 198.832 10.9433 198.372 10.81C197.912 10.6833 197.532 10.4967 197.232 10.25L197.792 9.31C198.026 9.50333 198.319 9.65667 198.672 9.77C199.032 9.89 199.396 9.95 199.762 9.95C200.349 9.95 200.779 9.81667 201.052 9.55C201.326 9.28333 201.462 8.87667 201.462 8.33V8.05C201.249 8.28333 200.989 8.46 200.682 8.58C200.376 8.7 200.039 8.76 199.672 8.76C199.166 8.76 198.706 8.65333 198.292 8.44C197.886 8.22 197.562 7.91333 197.322 7.52C197.089 7.12667 196.972 6.67667 196.972 6.17C196.972 5.66333 197.089 5.21667 197.322 4.83C197.562 4.43667 197.886 4.13333 198.292 3.92C198.706 3.70667 199.166 3.6 199.672 3.6C200.059 3.6 200.409 3.66333 200.722 3.79C201.042 3.91667 201.309 4.11 201.522 4.37V3.66H202.712ZM199.862 7.7C200.336 7.7 200.722 7.56 201.022 7.28C201.329 6.99333 201.482 6.62333 201.482 6.17C201.482 5.72333 201.329 5.36 201.022 5.08C200.722 4.8 200.336 4.66 199.862 4.66C199.382 4.66 198.989 4.8 198.682 5.08C198.382 5.36 198.232 5.72333 198.232 6.17C198.232 6.62333 198.382 6.99333 198.682 7.28C198.989 7.56 199.382 7.7 199.862 7.7ZM135.72 18.42H136.95V21.21C136.59 21.4967 136.17 21.7167 135.69 21.87C135.21 22.0233 134.717 22.1 134.21 22.1C133.497 22.1 132.853 21.9467 132.28 21.64C131.707 21.3267 131.257 20.8967 130.93 20.35C130.603 19.8033 130.44 19.1867 130.44 18.5C130.44 17.8133 130.603 17.1967 130.93 16.65C131.257 16.1033 131.707 15.6767 132.28 15.37C132.86 15.0567 133.51 14.9 134.23 14.9C134.817 14.9 135.35 14.9967 135.83 15.19C136.31 15.3833 136.713 15.6667 137.04 16.04L136.22 16.84C135.687 16.3067 135.043 16.04 134.29 16.04C133.797 16.04 133.357 16.1433 132.97 16.35C132.59 16.5567 132.29 16.8467 132.07 17.22C131.857 17.5933 131.75 18.02 131.75 18.5C131.75 18.9667 131.857 19.3867 132.07 19.76C132.29 20.1333 132.59 20.4267 132.97 20.64C133.357 20.8533 133.793 20.96 134.28 20.96C134.827 20.96 135.307 20.84 135.72 20.6V18.42ZM141.635 17.44C141.995 16.88 142.628 16.6 143.535 16.6V17.79C143.428 17.77 143.331 17.76 143.245 17.76C142.758 17.76 142.378 17.9033 142.105 18.19C141.831 18.47 141.695 18.8767 141.695 19.41V22H140.445V16.66H141.635V17.44ZM148.846 22.07C148.306 22.07 147.82 21.9533 147.386 21.72C146.953 21.4867 146.613 21.1633 146.366 20.75C146.126 20.33 146.006 19.8567 146.006 19.33C146.006 18.8033 146.126 18.3333 146.366 17.92C146.613 17.5067 146.953 17.1833 147.386 16.95C147.82 16.7167 148.306 16.6 148.846 16.6C149.393 16.6 149.883 16.7167 150.316 16.95C150.75 17.1833 151.086 17.5067 151.326 17.92C151.573 18.3333 151.696 18.8033 151.696 19.33C151.696 19.8567 151.573 20.33 151.326 20.75C151.086 21.1633 150.75 21.4867 150.316 21.72C149.883 21.9533 149.393 22.07 148.846 22.07ZM148.846 21C149.306 21 149.686 20.8467 149.986 20.54C150.286 20.2333 150.436 19.83 150.436 19.33C150.436 18.83 150.286 18.4267 149.986 18.12C149.686 17.8133 149.306 17.66 148.846 17.66C148.386 17.66 148.006 17.8133 147.706 18.12C147.413 18.4267 147.266 18.83 147.266 19.33C147.266 19.83 147.413 20.2333 147.706 20.54C148.006 20.8467 148.386 21 148.846 21ZM159.961 16.66V22H158.771V21.32C158.571 21.56 158.321 21.7467 158.021 21.88C157.721 22.0067 157.398 22.07 157.051 22.07C156.338 22.07 155.775 21.8733 155.361 21.48C154.955 21.08 154.751 20.49 154.751 19.71V16.66H156.001V19.54C156.001 20.02 156.108 20.38 156.321 20.62C156.541 20.8533 156.851 20.97 157.251 20.97C157.698 20.97 158.051 20.8333 158.311 20.56C158.578 20.28 158.711 19.88 158.711 19.36V16.66H159.961ZM166.458 16.6C166.978 16.6 167.441 16.7133 167.848 16.94C168.261 17.1667 168.585 17.4867 168.818 17.9C169.051 18.3133 169.168 18.79 169.168 19.33C169.168 19.87 169.051 20.35 168.818 20.77C168.585 21.1833 168.261 21.5033 167.848 21.73C167.441 21.9567 166.978 22.07 166.458 22.07C165.738 22.07 165.168 21.83 164.748 21.35V23.94H163.498V16.66H164.688V17.36C164.895 17.1067 165.148 16.9167 165.448 16.79C165.755 16.6633 166.091 16.6 166.458 16.6ZM166.318 21C166.778 21 167.155 20.8467 167.448 20.54C167.748 20.2333 167.898 19.83 167.898 19.33C167.898 18.83 167.748 18.4267 167.448 18.12C167.155 17.8133 166.778 17.66 166.318 17.66C166.018 17.66 165.748 17.73 165.508 17.87C165.268 18.0033 165.078 18.1967 164.938 18.45C164.798 18.7033 164.728 18.9967 164.728 19.33C164.728 19.6633 164.798 19.9567 164.938 20.21C165.078 20.4633 165.268 20.66 165.508 20.8C165.748 20.9333 166.018 21 166.318 21Z" fill="#797979"/>
</g>
<defs>
<clipPath id="clip0">
<rect width="203" height="24" fill="white"/>
</clipPath>
<clipPath id="clip1">
<rect width="13.943" height="14.2826" fill="white" transform="translate(106.057)"/>
</clipPath>
</defs>
</svg>
