<?xml version="1.0" encoding="UTF-8"?> <svg xmlns="http://www.w3.org/2000/svg" viewBox="0 0 532.97 166.3"> <defs> <style>.cls-1{fill:#c6b199;}</style> </defs> <title>logo_beje</title> <g id="Layer_2" data-name="Layer 2"> <g id="Layer_1-2" data-name="Layer 1"> <path class="cls-1" d="M295.92,40.38Q308.46,53,308.47,76.54v53.27a7.59,7.59,0,0,1-7.59,7.6h-.31a7.59,7.59,0,0,1-7.59-7.6v-22.3H230.41v22.3a7.59,7.59,0,0,1-7.59,7.6h0a7.59,7.59,0,0,1-7.59-7.6V76.54q0-23.54,12.55-36.16t33.91-12.62Q283.38,27.76,295.92,40.38ZM293,94V75.15q0-16.58-8.28-25.09t-23-8.52q-14.72,0-23,8.52t-8.28,25.09V94Z"></path> <path class="cls-1" d="M421.75,39l-40.1,91.43a11.74,11.74,0,0,1-10.75,7h0a11.73,11.73,0,0,1-10.74-7L319.92,39a7.09,7.09,0,0,1,6.5-10h1.21a7.1,7.1,0,0,1,6.5,4.25l37.16,84.8,37.47-84.82A7.1,7.1,0,0,1,415.25,29h0A7.1,7.1,0,0,1,421.75,39Z"></path> <path class="cls-1" d="M532.32,73.21A50.6,50.6,0,0,1,530,98.42a55,55,0,0,1-14.52,21.93l7.51,9.92a6.93,6.93,0,0,1-1.34,9.71l-.83.63a6.94,6.94,0,0,1-9.71-1.35l-7.51-9.92a55.91,55.91,0,0,1-25.19,7.95,50.59,50.59,0,0,1-24.83-4.66A55.3,55.3,0,0,1,422.71,90,51.21,51.21,0,0,1,427,62.75,58.29,58.29,0,0,1,445.53,40a57.87,57.87,0,0,1,26.76-11.56,50.74,50.74,0,0,1,27.31,3.24A53,53,0,0,1,521.81,49.2,53.51,53.51,0,0,1,532.32,73.21Zm-15.6,20.87a38,38,0,0,0,1-18.36,40.88,40.88,0,0,0-7.84-17.52,40.24,40.24,0,0,0-16.59-13.14,38.08,38.08,0,0,0-20.26-2.7,41.19,41.19,0,0,0-19.55,8.25,41.8,41.8,0,0,0-13.42,16.71,37.86,37.86,0,0,0-3,20.28,40.24,40.24,0,0,0,8.14,19.53,40.7,40.7,0,0,0,14.59,12.23,38.13,38.13,0,0,0,17.85,4,39.29,39.29,0,0,0,18.13-4.94L485.2,104.3a6.93,6.93,0,0,1,1.34-9.71h0a6.93,6.93,0,0,1,9.71,1.34L507,110.13A39.68,39.68,0,0,0,516.72,94.08Z"></path> <path class="cls-1" d="M81.83,122.88a54.77,54.77,0,1,1,54.76-54.76A54.83,54.83,0,0,1,81.83,122.88Zm0-108.78a54,54,0,1,0,54,54A54.08,54.08,0,0,0,81.83,14.1Z"></path> <path class="cls-1" d="M91.48,126.89a54.75,54.75,0,1,1,38.73-16A54.57,54.57,0,0,1,91.48,126.89Zm0-108.73A54,54,0,1,0,129.68,34,53.84,53.84,0,0,0,91.48,18.16Z"></path> <path class="cls-1" d="M95.46,136.59a54.77,54.77,0,1,1,54.76-54.76A54.83,54.83,0,0,1,95.46,136.59Zm0-108.78a54,54,0,1,0,54,54A54.08,54.08,0,0,0,95.46,27.81Z"></path> <path class="cls-1" d="M111.5,166.3a54.75,54.75,0,1,1,38.73-16A54.59,54.59,0,0,1,111.5,166.3Zm0-108.73a54,54,0,1,0,38.2,15.79A53.84,53.84,0,0,0,111.5,57.57Z"></path> <path class="cls-1" d="M81.75,150.22a54.77,54.77,0,1,1,54.76-54.76A54.82,54.82,0,0,1,81.75,150.22Zm0-108.78a54,54,0,1,0,54,54A54.08,54.08,0,0,0,81.75,41.44Z"></path> <path class="cls-1" d="M72.09,146.17a54.75,54.75,0,1,1,38.73-16A54.57,54.57,0,0,1,72.09,146.17Zm0-108.73a54,54,0,1,0,38.2,15.79A53.84,53.84,0,0,0,72.09,37.44Z"></path> <path class="cls-1" d="M68.12,136.52a54.77,54.77,0,1,1,54.76-54.77A54.83,54.83,0,0,1,68.12,136.52Zm0-108.79a54,54,0,1,0,54,54A54.08,54.08,0,0,0,68.12,27.73Z"></path> <path class="cls-1" d="M72.15,126.83a54.74,54.74,0,1,1,38.72-16A54.62,54.62,0,0,1,72.15,126.83Zm0-108.73a54,54,0,1,0,38.19,15.8A53.85,53.85,0,0,0,72.15,18.1Z"></path> <circle class="cls-1" cx="81.82" cy="13.72" r="13.72"></circle> <circle class="cls-1" cx="129.94" cy="33.68" r="13.72"></circle> <circle class="cls-1" cx="149.86" cy="81.82" r="13.72"></circle> <circle class="cls-1" cx="149.97" cy="150.02" r="13.72"></circle> <circle class="cls-1" cx="81.75" cy="149.86" r="13.72"></circle> <circle class="cls-1" cx="33.63" cy="129.89" r="13.72"></circle> <circle class="cls-1" cx="13.72" cy="81.75" r="13.72"></circle> <circle class="cls-1" cx="33.68" cy="33.63" r="13.72"></circle> </g> </g> </svg> 