<svg width="22" height="22" viewBox="0 0 22 22" fill="none" xmlns="http://www.w3.org/2000/svg">
<path fill-rule="evenodd" clip-rule="evenodd" d="M11.147 21.4194C16.8248 21.4194 21.4275 16.8166 21.4275 11.1388C21.4275 5.46103 16.8248 0.858276 11.147 0.858276C5.46921 0.858276 0.866455 5.46103 0.866455 11.1388C0.866455 16.8166 5.46921 21.4194 11.147 21.4194ZM12.9919 4.56291C12.5827 4.56347 12.1727 4.56402 11.7613 4.57039L11.7617 4.5708C11.7509 5.98415 11.7516 7.39785 11.7523 8.8133C11.7527 9.60443 11.7531 10.3961 11.7515 11.1886C11.7497 11.4543 11.7499 11.7197 11.7502 11.985C11.7509 12.6989 11.7517 13.4117 11.7124 14.1268C11.7067 14.3252 11.6071 14.4996 11.5105 14.6691C11.5028 14.6826 11.4951 14.696 11.4875 14.7095C11.1683 15.2297 10.5815 15.585 9.96923 15.5915C9.04562 15.6734 8.18041 14.9171 8.05006 14.0174C8.04907 13.9733 8.04751 13.9289 8.04595 13.8844C8.03703 13.6306 8.02793 13.3718 8.12449 13.1353C8.26183 12.7455 8.52543 12.4009 8.8725 12.1759C9.34787 11.8457 9.98362 11.7964 10.5277 11.9724C10.5277 11.6255 10.5336 11.2789 10.5395 10.9322C10.5475 10.4671 10.5554 10.002 10.549 9.53671C9.35815 9.31383 8.08624 9.69051 7.17826 10.4813C6.3772 11.1602 5.86112 12.1582 5.76243 13.2015C5.75133 13.4692 5.75585 13.7431 5.76901 14.0174C5.88251 15.3004 6.66177 16.4958 7.76919 17.1488C8.43743 17.5428 9.2208 17.7566 10.005 17.7118C11.2835 17.6904 12.5283 17.0049 13.2454 15.9534C13.6912 15.3218 13.9441 14.559 13.9869 13.7924C13.998 12.7394 13.9973 11.6845 13.9966 10.6282C13.9962 10.084 13.9959 9.5395 13.9971 8.99472C14.2821 9.181 14.5733 9.36317 14.8858 9.50463C15.6034 9.84513 16.3979 10.0096 17.1886 10.0355V7.82767C16.3448 7.7335 15.4775 7.45511 14.8644 6.84691C14.25 6.25352 13.9482 5.39859 13.905 4.55928C13.6009 4.56209 13.2966 4.5625 12.9919 4.56291Z" fill="black"/>
</svg>
