<svg width="21" height="21" viewBox="0 0 21 21" fill="none" xmlns="http://www.w3.org/2000/svg">
<path d="M10.3505 0.69397C4.7606 0.69397 0.229004 5.22557 0.229004 10.8155C0.229004 16.4053 4.7606 20.9369 10.3505 20.9369C15.9404 20.9369 20.472 16.4053 20.472 10.8155C20.472 5.22557 15.9404 0.69397 10.3505 0.69397ZM14.7396 12.1533C14.8193 12.2518 15.0087 12.4437 15.3084 12.7294H15.3154L15.3224 12.7362L15.3293 12.7434L15.3435 12.7574C16.0036 13.3707 16.4506 13.8881 16.6848 14.3095C16.699 14.3327 16.7142 14.3622 16.7306 14.3973C16.7468 14.4324 16.7632 14.4944 16.7797 14.5833C16.7959 14.6726 16.7946 14.7518 16.7762 14.822C16.7575 14.892 16.699 14.9569 16.6007 15.0152C16.5024 15.0739 16.3642 15.103 16.1863 15.103L14.3884 15.1313C14.2762 15.1547 14.145 15.143 13.9952 15.0962C13.8451 15.0492 13.7236 14.9977 13.63 14.9417L13.4894 14.8571C13.3488 14.7588 13.185 14.609 12.9979 14.4078C12.8105 14.2065 12.6502 14.025 12.5167 13.8635C12.3833 13.7019 12.2405 13.5665 12.0882 13.456C11.9359 13.346 11.8037 13.3097 11.6914 13.3473C11.6775 13.3522 11.6586 13.3604 11.6352 13.3719C11.6116 13.3836 11.572 13.4173 11.5157 13.4737C11.4595 13.5299 11.4092 13.5991 11.3646 13.6808C11.3201 13.7629 11.2803 13.8846 11.2452 14.0461C11.2101 14.2075 11.1947 14.3891 11.1996 14.5905C11.1996 14.6605 11.1912 14.7251 11.175 14.7836C11.1586 14.8421 11.1409 14.8854 11.1222 14.9133L11.0941 14.9484C11.0098 15.0377 10.8858 15.089 10.722 15.103H9.91432C9.58181 15.1219 9.24006 15.0833 8.88908 14.9872C8.53809 14.891 8.23001 14.7672 7.96564 14.6149C7.70086 14.463 7.4599 14.3085 7.24233 14.1516C7.02455 13.9946 6.85953 13.8602 6.74725 13.7479L6.57176 13.5792C6.52496 13.5326 6.46051 13.4622 6.37862 13.3684C6.29672 13.2748 6.12944 13.062 5.87657 12.7294C5.62369 12.3969 5.37554 12.0437 5.13211 11.6689C4.88868 11.2943 4.60194 10.8003 4.27169 10.187C3.94164 9.57387 3.63622 8.93717 3.35523 8.27687C3.32711 8.20216 3.31294 8.13894 3.31294 8.08742C3.31294 8.03611 3.31992 7.99855 3.33409 7.97494L3.36221 7.93287C3.4324 7.84379 3.56582 7.79925 3.76245 7.79925L5.68671 7.78529C5.74295 7.79473 5.79672 7.80992 5.84824 7.83106C5.89976 7.852 5.93732 7.87191 5.96072 7.89058L5.99582 7.91172C6.07074 7.96345 6.12677 8.03816 6.16433 8.13648C6.25793 8.37088 6.36569 8.61308 6.4874 8.86349C6.60912 9.1139 6.70518 9.30478 6.77537 9.43574L6.88765 9.63955C7.02332 9.92034 7.15448 10.164 7.28091 10.3698C7.40756 10.5759 7.52086 10.7364 7.62163 10.851C7.72221 10.9657 7.81929 11.056 7.9131 11.1213C8.00669 11.187 8.08633 11.2198 8.15201 11.2198C8.21749 11.2198 8.28071 11.2081 8.34167 11.1847C8.3509 11.18 8.3626 11.1683 8.37676 11.1496C8.39093 11.1309 8.41884 11.0794 8.46112 10.9948C8.5032 10.9107 8.53481 10.8007 8.55595 10.6648C8.57709 10.5293 8.59926 10.3397 8.62266 10.0962C8.64606 9.85261 8.64606 9.56012 8.62266 9.21837C8.61322 9.03097 8.59208 8.8602 8.55944 8.70565C8.5266 8.5513 8.49376 8.44354 8.46112 8.38258L8.41884 8.29842C8.30185 8.13935 8.10296 8.03857 7.82196 7.99629C7.761 7.98726 7.7727 7.93102 7.85706 7.82798C7.9367 7.7389 8.02557 7.66891 8.12389 7.61719C8.37204 7.49568 8.93157 7.43944 9.80246 7.44847C10.1863 7.45339 10.5024 7.48356 10.7505 7.5398C10.8441 7.56341 10.9225 7.59481 10.9857 7.63463C11.049 7.67425 11.097 7.73069 11.1298 7.80294C11.1625 7.8756 11.1871 7.95052 11.2035 8.02769C11.2199 8.10507 11.2282 8.21181 11.2282 8.34727C11.2282 8.48315 11.2259 8.61205 11.2212 8.73356C11.2165 8.85528 11.2107 9.02051 11.2037 9.22863C11.1967 9.43697 11.1931 9.63032 11.1931 9.80807C11.1931 9.85979 11.1908 9.9579 11.1861 10.103C11.1814 10.2483 11.1799 10.3606 11.1826 10.44C11.1848 10.5197 11.1931 10.6147 11.207 10.7245C11.2212 10.8345 11.2481 10.9261 11.2879 10.9983C11.3275 11.071 11.3802 11.1283 11.4459 11.1703C11.4833 11.18 11.5231 11.1892 11.5654 11.1987C11.6075 11.2079 11.6682 11.1824 11.7479 11.1213C11.8273 11.0605 11.9164 10.9797 12.0147 10.8791C12.113 10.7787 12.2347 10.6219 12.3798 10.4086C12.5247 10.196 12.684 9.94415 12.8573 9.65371C13.1382 9.16685 13.3887 8.63997 13.6087 8.07346C13.6274 8.02646 13.6508 7.98562 13.6789 7.95052C13.707 7.91521 13.7327 7.89058 13.7561 7.87663L13.7842 7.85548C13.7934 7.85076 13.8051 7.84502 13.8193 7.83804C13.8334 7.83126 13.8638 7.82408 13.9106 7.8169C13.9574 7.81012 14.0042 7.80889 14.0512 7.81361L16.0738 7.79925C16.2563 7.77605 16.4061 7.7818 16.5231 7.81669C16.6401 7.85179 16.7127 7.89058 16.7409 7.93266L16.7831 8.00286C16.8907 8.30273 16.5397 8.99054 15.7298 10.0675C15.6173 10.2175 15.465 10.4166 15.2733 10.6646C14.9081 11.133 14.6976 11.4396 14.6417 11.5852C14.5617 11.7767 14.5945 11.9663 14.7396 12.1533Z" fill="black"/>
</svg>
