<svg width="21" height="21" viewBox="0 0 21 21" fill="none" xmlns="http://www.w3.org/2000/svg">
<path fill-rule="evenodd" clip-rule="evenodd" d="M10.5517 20.9369C16.1416 20.9369 20.6731 16.4054 20.6731 10.8155C20.6731 5.22551 16.1416 0.69397 10.5517 0.69397C4.96172 0.69397 0.430176 5.22551 0.430176 10.8155C0.430176 16.4054 4.96172 20.9369 10.5517 20.9369ZM11.0244 11.3921H11.9155V5.38149H10.8336C9.54004 5.38149 8.26781 6.27237 8.26781 8.4567C8.26781 10.5534 9.62497 11.3921 11.0244 11.3921ZM10.8972 4.26337H13.3149C13.4634 4.26337 13.5483 4.31563 13.5483 4.43823V17.2279C13.5483 17.3149 13.5058 17.3673 13.3786 17.3673H12.0633C11.9791 17.3673 11.9155 17.2975 11.9155 17.2452V12.5101H10.8547L7.90719 17.2452C7.86487 17.3324 7.77995 17.3673 7.65269 17.3673H6.14713C5.97798 17.3673 5.87203 17.2452 5.97798 17.0879L9.2219 12.2656C7.48356 11.6366 6.50773 10.3612 6.50773 8.63145C6.50773 5.74849 8.52245 4.26337 10.8972 4.26337Z" fill="black"/>
</svg>
