<svg width="21" height="21" viewBox="0 0 21 21" fill="none" xmlns="http://www.w3.org/2000/svg">
<path d="M10.8437 0.69397C5.25376 0.69397 0.722168 5.22557 0.722168 10.8155C0.722168 16.4053 5.25376 20.9369 10.8437 20.9369C16.4335 20.9369 20.9651 16.4053 20.9651 10.8155C20.9651 5.22557 16.4335 0.69397 10.8437 0.69397ZM16.4949 13.1728C16.3601 14.0267 15.9473 14.4903 15.0793 14.5884C14.1092 14.698 11.9282 14.7485 10.9588 14.7485C9.95572 14.7485 7.92699 14.7065 6.91427 14.6221C6.04379 14.5496 5.44978 14.0634 5.33012 13.198C5.24309 12.5679 5.18685 11.8189 5.18685 10.6281C5.18685 9.30232 5.23468 8.74136 5.34695 8.14243C5.50725 7.28775 5.9153 6.87376 6.84674 6.77749C7.82416 6.6763 8.74821 6.62581 10.8155 6.62581C11.8262 6.62581 14.0052 6.67815 15.0117 6.76908C15.8908 6.84851 16.3861 7.38627 16.4947 8.24362C16.5704 8.84194 16.638 9.69846 16.638 10.6198C16.6382 12.2375 16.4949 13.1728 16.4949 13.1728Z" fill="black"/>
</svg>
